_________________________  Visit us at _________________________
  
http://p2pdl.com  ____________________________  http://p2pdl.com

 
http://www.shotpix.com/images/43765463970070413068.jpg


Pink - Just Give Me A Reason (Ft. Nate Ruess) 2013 M4A+MP4 (1080p) x264 [VX] [P2PDL]


                            1080p Full HD MP4 Video
                                      +
                             128 Kbps/VBR M4A Audio

General
Complete name                  : P!nk Ft. Nate Ruess - Just Give Me A Reason (1080p) x264 [VX] [P2PDL].mp4
Format                         : MPEG-4
Format profile                 : Base Media / Version 2
Codec ID                       : mp42
File size                      : 37.3 MiB
Duration                       : 4mn 2s
Overall bit rate mode          : Variable
Overall bit rate               : 1 290 Kbps

Video
Format                         : AVC
Format/Info                    : Advanced Video Codec
Format profile                 : High@L4.0
Width                          : 1 920 pixels
Height                         : 800 pixels
Display aspect ratio           : 2.40:1
Frame rate mode                : Variable
Frame rate                     : 23.976 fps
Stream size                    : 33.4 MiB (90%)
Writing library                : x264 core 129

Audio
ID                             : 2
Format                         : AAC
Bit rate mode                  : Variable
Bit rate                       : 128 Kbps
Channel(s)                     : 2 channels
Channel positions              : Front: L R
Sampling rate                  : 48.0 KHz
Stream size                    : 3.70 MiB (10%)

Subtitles                      : No

Screens:
 
http://www.shotpix.com/images/31234810353045038638.jpg 
http://www.shotpix.com/images/50467484301360138129.jpg

Thumbs:
 
http://www.shotpix.com/images/69539864465745427993.jpg
------------------------------------------------------------------------

Notes:

* Recommended to use latest version VLC Media Player.
* Install shark007 codecs in case of any kind of problem in playback (For non-VLC Media Player users).
* Alternatively, install Core AVC codecs, the fastest decoder that there is coupled with Community Center Codec Pack and play on Windows Media Player Classic.

Greets to: VYTO, a2zRG, MusiK_KinG, Kuroyukihime, Caveman, Ash968, Neon, TwentyForty, Masta, TorDigger and staff members at ExtraTorrent, TPB, H33T, KAT, 1337x, PublicHD, Ahashare, TorrentMafia, Limetorrents, BTScene, P2PDL, and all others

Encoder Notes: Looking For Early Access To Anything You Can Provide DVDScr, R5, DVDRips, BluRay, Direct Audio, Early Music
Releases, Seedboxes, Links, Dedicated Servers anything u can provide, Advance / Promo CDs/DVDs. If You Got anything to
offer contact me at "prg@hush.com".